<svg width="48" height="48" viewBox="0 0 48 48" fill="none" xmlns="http://www.w3.org/2000/svg">
<mask id="mask0_242_177" style="mask-type:alpha" maskUnits="userSpaceOnUse" x="0" y="0" width="48" height="49">
<rect y="0.000488281" width="48" height="48" fill="#E9E9E9"/>
</mask>
<g mask="url(#mask0_242_177)">
<path d="M8.38445 10.308H25.3074V8.76949C25.3074 8.46182 25.1793 8.17982 24.9229 7.92349C24.6666 7.66716 24.3846 7.53899 24.0769 7.53899H9.61545C9.30778 7.53899 9.02561 7.66716 8.76895 7.92349C8.51261 8.17982 8.38445 8.46182 8.38445 8.76949V10.308ZM9.61545 42.0005C8.84678 42.0005 8.19311 41.7312 7.65445 41.1925C7.11545 40.6535 6.84595 39.9998 6.84595 39.2315V8.76949C6.84595 8.00116 7.11545 7.34749 7.65445 6.80849C8.19311 6.26982 8.84678 6.00049 9.61545 6.00049H24.0769C24.8456 6.00049 25.4993 6.26982 26.0379 6.80849C26.5766 7.34749 26.8459 8.00116 26.8459 8.76949V16.6235C26.5683 16.7745 26.3079 16.934 26.0649 17.102C25.8216 17.2703 25.5691 17.439 25.3074 17.608V11.8465H8.38445V36.1545H21.8844C22.0641 36.4392 22.2584 36.7077 22.4674 36.96C22.6764 37.2127 22.8988 37.4512 23.1344 37.6755H8.38445V39.2315C8.38445 39.5392 8.51261 39.8212 8.76895 40.0775C9.02561 40.3338 9.30778 40.462 9.61545 40.462H25.8459V40.2775C25.9203 40.3108 25.9966 40.3532 26.0749 40.4045C26.1533 40.4558 26.2373 40.4993 26.3269 40.535C26.0936 40.966 25.7654 41.318 25.3424 41.591C24.9191 41.864 24.4331 42.0005 23.8844 42.0005H9.61545ZM33.8359 36.462C35.9913 36.462 37.814 35.7205 39.304 34.2375C40.7936 32.7545 41.5384 30.9353 41.5384 28.78C41.5384 26.6243 40.797 24.8017 39.3139 23.312C37.8309 21.8223 36.0118 21.0775 33.8564 21.0775C31.7008 21.0775 29.8781 21.819 28.3884 23.302C26.8988 24.785 26.1539 26.6042 26.1539 28.7595C26.1539 30.9152 26.8954 32.7378 28.3784 34.2275C29.8614 35.7172 31.6806 36.462 33.8359 36.462ZM30.3074 42.0005V37.3275C28.6255 36.6045 27.2563 35.4865 26.1999 33.9735C25.1436 32.4608 24.6154 30.7262 24.6154 28.7695C24.6154 26.8132 25.1436 25.0787 26.1999 23.566C27.2563 22.053 28.6255 20.935 30.3074 20.212V15.539H37.3844V20.212C39.0664 20.935 40.4358 22.053 41.4924 23.566C42.5488 25.0787 43.0769 26.8132 43.0769 28.7695C43.0769 30.7262 42.5488 32.4608 41.4924 33.9735C40.4358 35.4865 39.0664 36.6045 37.3844 37.3275V42.0005H30.3074Z" fill="#E9E9E9"/>
</g>
</svg>
