<svg width="48" height="48" viewBox="0 0 48 48" fill="none" xmlns="http://www.w3.org/2000/svg">
<mask id="mask0_242_246" style="mask-type:alpha" maskUnits="userSpaceOnUse" x="0" y="0" width="48" height="49">
<rect y="0.000488281" width="48" height="48" fill="#D9D9D9"/>
</mask>
<g mask="url(#mask0_242_246)">
<path d="M6 38.0005V35.693H10V12.7695C10 12.0278 10.2762 11.381 10.8285 10.829C11.3805 10.2767 12.0273 10.0005 12.769 10.0005H40V11.539H12.769C12.4103 11.539 12.1155 11.6543 11.8845 11.885C11.6538 12.116 11.5385 12.4108 11.5385 12.7695V35.693H22.5V38.0005H6ZM28.9615 38.0005C28.5692 38.0005 28.2403 37.8678 27.975 37.6025C27.7097 37.3372 27.577 37.0083 27.577 36.616V17.2315C27.577 16.8392 27.7097 16.5102 27.975 16.2445C28.2403 15.9792 28.5692 15.8465 28.9615 15.8465H40.654C41.0463 15.8465 41.3752 15.9792 41.6405 16.2445C41.9058 16.5102 42.0385 16.8392 42.0385 17.2315V36.616C42.0385 37.0083 41.9058 37.3372 41.6405 37.6025C41.3752 37.8678 41.0463 38.0005 40.654 38.0005H28.9615ZM29.1155 35.693H40.5V17.385H29.1155V35.693Z" fill="#E9E9E9"/>
</g>
</svg>
