<svg width="48" height="48" viewBox="0 0 48 48" fill="none" xmlns="http://www.w3.org/2000/svg">
<mask id="mask0_242_252" style="mask-type:alpha" maskUnits="userSpaceOnUse" x="0" y="0" width="48" height="49">
<rect y="0.000488281" width="48" height="48" fill="#D9D9D9"/>
</mask>
<g mask="url(#mask0_242_252)">
<path d="M9.36895 40.0005C8.64429 40.0005 8.12912 39.671 7.82345 39.012C7.51812 38.353 7.61795 37.7467 8.12295 37.193L20.2925 22.9235V9.53899H17.231C17.013 9.53899 16.8301 9.46416 16.6825 9.31449C16.5351 9.16516 16.4615 8.97999 16.4615 8.75899C16.4615 8.53799 16.5351 8.35632 16.6825 8.21399C16.8301 8.07166 17.013 8.00049 17.231 8.00049H30.769C30.987 8.00049 31.1698 8.07515 31.3174 8.22449C31.4648 8.37415 31.5385 8.55949 31.5385 8.78049C31.5385 9.00149 31.4648 9.18316 31.3174 9.32549C31.1698 9.46782 30.987 9.53899 30.769 9.53899H27.7075V22.9235L39.8769 37.193C40.382 37.7467 40.4818 38.353 40.1765 39.012C39.8708 39.671 39.3556 40.0005 38.631 40.0005H9.36895ZM13.1385 36.693H34.8615L27.5155 28.0965H20.4845L13.1385 36.693ZM9.07695 38.462H38.923L26.169 23.485V9.53899H21.831V23.485L9.07695 38.462Z" fill="#E9E9E9"/>
</g>
</svg>
