<svg width="20" height="20" viewBox="0 0 20 20" fill="none" xmlns="http://www.w3.org/2000/svg">
<path d="M10.0022 4.83057C7.16453 4.83057 4.87563 7.1004 4.87563 9.91445C4.87563 12.7285 7.16453 14.9983 10.0022 14.9983C12.8399 14.9983 15.1288 12.7285 15.1288 9.91445C15.1288 7.1004 12.8399 4.83057 10.0022 4.83057ZM10.0022 13.2196C8.16843 13.2196 6.66927 11.7374 6.66927 9.91445C6.66927 8.09151 8.16397 6.60927 10.0022 6.60927C11.8405 6.60927 13.3352 8.09151 13.3352 9.91445C13.3352 11.7374 11.836 13.2196 10.0022 13.2196ZM16.5343 4.62262C16.5343 5.28188 15.9989 5.80841 15.3385 5.80841C14.6737 5.80841 14.1428 5.27746 14.1428 4.62262C14.1428 3.96777 14.6782 3.43682 15.3385 3.43682C15.9989 3.43682 16.5343 3.96777 16.5343 4.62262ZM19.9297 5.82611C19.8539 4.23767 19.488 2.83065 18.3146 1.6714C17.1456 0.512149 15.7267 0.149331 14.1249 0.0696877C12.4741 -0.0232292 7.52593 -0.0232292 5.87507 0.0696877C4.27775 0.144906 2.8589 0.507724 1.68544 1.66697C0.511991 2.82622 0.150586 4.23325 0.0702733 5.82169C-0.0234244 7.45879 -0.0234244 12.3657 0.0702733 14.0028C0.146124 15.5912 0.511991 16.9983 1.68544 18.1575C2.8589 19.3168 4.27328 19.6796 5.87507 19.7592C7.52593 19.8521 12.4741 19.8521 14.1249 19.7592C15.7267 19.684 17.1456 19.3212 18.3146 18.1575C19.4835 16.9983 19.8494 15.5912 19.9297 14.0028C20.0234 12.3657 20.0234 7.46322 19.9297 5.82611ZM17.797 15.7594C17.449 16.6266 16.7752 17.2947 15.8963 17.6443C14.58 18.1619 11.4568 18.0425 10.0022 18.0425C8.54769 18.0425 5.41997 18.1575 4.1082 17.6443C3.23369 17.2991 2.55996 16.631 2.20747 15.7594C1.68544 14.4541 1.80591 11.3569 1.80591 9.91445C1.80591 8.47203 1.68991 5.37038 2.20747 4.06954C2.55549 3.20231 3.22922 2.5342 4.1082 2.18465C5.42443 1.66697 8.54769 1.78644 10.0022 1.78644C11.4568 1.78644 14.5845 1.6714 15.8963 2.18465C16.7708 2.52977 17.4445 3.19789 17.797 4.06954C18.319 5.3748 18.1985 8.47203 18.1985 9.91445C18.1985 11.3569 18.319 14.4585 17.797 15.7594Z" fill="#E9E9E9"/>
</svg>
