<svg width="20" height="20" viewBox="0 0 20 20" fill="none" xmlns="http://www.w3.org/2000/svg">
<path d="M4.47768 19.8333H0.330357V6.59193H4.47768V19.8333ZM2.40179 4.78568C1.07589 4.78568 0 3.69661 0 2.38177C0 1.75009 0.253045 1.14427 0.703467 0.697605C1.15389 0.250936 1.76479 0 2.40179 0C3.03878 0 3.64968 0.250936 4.1001 0.697605C4.55053 1.14427 4.80357 1.75009 4.80357 2.38177C4.80357 3.69661 3.72768 4.78568 2.40179 4.78568ZM19.9955 19.8333H15.8571V13.3875C15.8571 11.8513 15.8259 9.88125 13.7009 9.88125C11.5446 9.88125 11.2143 11.5503 11.2143 13.2768V19.8333H7.07143V6.59193H11.0491V8.39818H11.1071C11.6607 7.35781 13.0134 6.2599 15.0313 6.2599C19.2277 6.2599 20 9.00026 20 12.5596V19.8333H19.9955Z" fill="#E9E9E9"/>
</svg>
