<svg width="20" height="20" viewBox="0 0 20 20" fill="none" xmlns="http://www.w3.org/2000/svg">
<path d="M17.0045 2.88203C15.1339 1.02266 12.6429 0 9.99553 0C4.53125 0 0.0848214 4.40937 0.0848214 9.82812C0.0848214 11.5591 0.540179 13.2503 1.40625 14.7422L0 19.8333L5.25446 18.4654C6.70089 19.249 8.33036 19.6607 9.99107 19.6607H9.99553C15.4554 19.6607 20 15.2513 20 9.83255C20 7.20729 18.875 4.74141 17.0045 2.88203ZM9.99553 18.0049C8.51339 18.0049 7.0625 17.6109 5.79911 16.8672L5.5 16.6901L2.38393 17.5003L3.21429 14.4854L3.01786 14.1755C2.19196 12.874 1.75893 11.3732 1.75893 9.82812C1.75893 5.32578 5.45536 1.66016 10 1.66016C12.2009 1.66016 14.2679 2.51016 15.8214 4.05521C17.375 5.60026 18.3304 7.65 18.3259 9.83255C18.3259 14.3393 14.5357 18.0049 9.99553 18.0049ZM14.5134 11.8867C14.2679 11.7628 13.0491 11.1695 12.8214 11.0898C12.5938 11.0057 12.4286 10.9659 12.2634 11.2138C12.0982 11.4617 11.625 12.0107 11.4777 12.1789C11.3348 12.3427 11.1875 12.3648 10.942 12.2409C9.48661 11.5193 8.53125 10.9526 7.57143 9.31901C7.31696 8.88516 7.82589 8.91615 8.29911 7.9776C8.37946 7.8138 8.33928 7.67213 8.27678 7.54818C8.21428 7.42422 7.71875 6.21562 7.51339 5.72422C7.3125 5.24609 7.10714 5.3125 6.95536 5.30365C6.8125 5.29479 6.64732 5.29479 6.48214 5.29479C6.31696 5.29479 6.04911 5.35677 5.82143 5.60026C5.59375 5.84818 4.95536 6.44141 4.95536 7.65C4.95536 8.85859 5.84375 10.0273 5.96429 10.1911C6.08929 10.3549 7.70982 12.8341 10.1964 13.901C11.7679 14.574 12.3839 14.6315 13.1696 14.5164C13.6473 14.4456 14.6339 13.9232 14.8393 13.3477C15.0446 12.7721 15.0446 12.2807 14.9821 12.1789C14.9241 12.0682 14.7589 12.0062 14.5134 11.8867Z" fill="#E9E9E9"/>
</svg>
